<svg aria-hidden="true" style="position: absolute; width: 0; height: 0; overflow: hidden;" version="1.1" xmlns="http://www.w3.org/2000/svg" xmlns:xlink="http://www.w3.org/1999/xlink">
<defs>
<symbol id="icon-add-outline" viewBox="0 0 20 20">
<title>add-outline</title>
<path d="M11 9h4v2h-4v4h-2v-4h-4v-2h4v-4h2v4zM10 20c-5.523 0-10-4.477-10-10s4.477-10 10-10v0c5.523 0 10 4.477 10 10s-4.477 10-10 10v0zM10 18c4.418 0 8-3.582 8-8s-3.582-8-8-8v0c-4.418 0-8 3.582-8 8s3.582 8 8 8v0z"></path>
</symbol>
<symbol id="icon-add-solid" viewBox="0 0 20 20">
<title>add-solid</title>
<path d="M11 9v-4h-2v4h-4v2h4v4h2v-4h4v-2h-4zM10 20c-5.523 0-10-4.477-10-10s4.477-10 10-10v0c5.523 0 10 4.477 10 10s-4.477 10-10 10v0z"></path>
</symbol>
<symbol id="icon-adjust" viewBox="0 0 20 20">
<title>adjust</title>
<path d="M10 2v16c4.418 0 8-3.582 8-8s-3.582-8-8-8v0zM10 20c-5.523 0-10-4.477-10-10s4.477-10 10-10v0c5.523 0 10 4.477 10 10s-4.477 10-10 10v0z"></path>
</symbol>
<symbol id="icon-arrow-thin-left" viewBox="0 0 20 20">
<title>arrow-thin-left</title>
<path d="M3.828 9l6.071-6.071-1.414-1.414-8.485 8.485 8.485 8.485 1.414-1.414-6.071-6.071h16.172v-2h-16.172z"></path>
</symbol>
<symbol id="icon-arrow-thin-right" viewBox="0 0 20 20">
<title>arrow-thin-right</title>
<path d="M16.172 9l-6.071-6.071 1.414-1.414 8.485 8.485-8.485 8.485-1.414-1.414 6.071-6.071h-16.172v-2z"></path>
</symbol>
<symbol id="icon-block" viewBox="0 0 20 20">
<title>block</title>
<path d="M0 10c0-5.523 4.477-10 10-10s10 4.477 10 10v0c0 5.523-4.477 10-10 10s-10-4.477-10-10v0zM16.32 5.1l-11.23 11.21c1.34 1.049 3.050 1.683 4.908 1.683 4.418 0 8-3.582 8-8 0-1.855-0.632-3.563-1.692-4.92l0.013 0.018zM14.91 3.68c-1.344-1.059-3.061-1.698-4.928-1.698-4.418 0-8 3.582-8 8 0 1.867 0.639 3.584 1.711 4.945l-0.013-0.017 11.23-11.23z"></path>
</symbol>
<symbol id="icon-book-reference" viewBox="0 0 20 20">
<title>book-reference</title>
<path d="M6 4h-1c-0.552 0-1-0.448-1-1s0.448-1 1-1v0h11v-1c0-0.552-0.448-1-1-1v0h-11c-1.105 0-2 0.895-2 2v0 16c0 1.1 0.9 2 2 2h12c1.105 0 2-0.895 2-2v0-13c0-0.552-0.448-1-1-1v0h-7v8l-2-2-2 2v-8z"></path>
</symbol>
<symbol id="icon-bookmark" viewBox="0 0 20 20">
<title>bookmark</title>
<path d="M2 2c0-1.1 0.9-2 2-2h12c1.105 0 2 0.895 2 2v0 18l-8-4-8 4v-18z"></path>
</symbol>
<symbol id="icon-bookmark-outline" viewBox="0 0 20 20">
<title>bookmark-outline</title>
<path d="M2 2c0-1.1 0.9-2 2-2h12c1.105 0 2 0.895 2 2v0 18l-8-4-8 4v-18zM4 2v15l6-3 6 3v-15h-12z"></path>
</symbol>
<symbol id="icon-bookmark-outline-add" viewBox="0 0 20 20">
<title>bookmark-outline-add</title>
<path d="M2 2c0-1.1 0.9-2 2-2h12c1.105 0 2 0.895 2 2v0 18l-8-4-8 4v-18zM4 2v15l6-3 6 3v-15h-12zM9 7v-2h2v2h2v2h-2v2h-2v-2h-2v-2h2z"></path>
</symbol>
<symbol id="icon-box" viewBox="0 0 20 20">
<title>box</title>
<path d="M0 2c0-1.1 0.9-2 2-2h16c1.105 0 2 0.895 2 2v0 2h-20v-2zM1 5h18v13c0 1.105-0.895 2-2 2v0h-14c-1.105 0-2-0.895-2-2v0-13zM7 7v2h6v-2h-6z"></path>
</symbol>
<symbol id="icon-calendar" viewBox="0 0 20 20">
<title>calendar</title>
<path d="M1 4c0-1.1 0.9-2 2-2h14c1.105 0 2 0.895 2 2v0 14c0 1.105-0.895 2-2 2v0h-14c-1.105 0-2-0.895-2-2v0-14zM3 6v12h14v-12h-14zM5 0h2v2h-2v-2zM13 0h2v2h-2v-2zM5 9h2v2h-2v-2zM5 13h2v2h-2v-2zM9 9h2v2h-2v-2zM9 13h2v2h-2v-2zM13 9h2v2h-2v-2zM13 13h2v2h-2v-2z"></path>
</symbol>
<symbol id="icon-camera" viewBox="0 0 20 20">
<title>camera</title>
<path d="M0 6c0-1.1 0.9-2 2-2h3l2-2h6l2 2h3c1.105 0 2 0.895 2 2v0 10c0 1.105-0.895 2-2 2v0h-16c-1.105 0-2-0.895-2-2v0-10zM10 16c2.761 0 5-2.239 5-5s-2.239-5-5-5v0c-2.761 0-5 2.239-5 5s2.239 5 5 5v0zM10 14c-1.657 0-3-1.343-3-3s1.343-3 3-3v0c1.657 0 3 1.343 3 3s-1.343 3-3 3v0z"></path>
</symbol>
<symbol id="icon-chart-bar" viewBox="0 0 20 20">
<title>chart-bar</title>
<path d="M1 10h3v10h-3v-10zM6 0h3v20h-3v-20zM11 8h3v12h-3v-12zM16 4h3v16h-3v-16z"></path>
</symbol>
<symbol id="icon-chart-pie" viewBox="0 0 20 20">
<title>chart-pie</title>
<path d="M19.95 11c-0.525 5.076-4.779 9-9.95 9-5.523 0-10-4.477-10-10 0-5.171 3.924-9.425 8.957-9.946l0.043-0.004v10.95h10.95zM19.87 8.4h-8.27v-8.27c4.252 0.708 7.562 4.018 8.262 8.212l0.008 0.058z"></path>
</symbol>
<symbol id="icon-chat-bubble-dots" viewBox="0 0 20 20">
<title>chat-bubble-dots</title>
<path d="M10 15l-4 4v-4h-4c-1.105 0-2-0.895-2-2v0-10c0-1.1 0.9-2 2-2h16c1.105 0 2 0.895 2 2v0 10c0 1.105-0.895 2-2 2v0h-8zM5 7v2h2v-2h-2zM9 7v2h2v-2h-2zM13 7v2h2v-2h-2z"></path>
</symbol>
<symbol id="icon-checkmark" viewBox="0 0 20 20">
<title>checkmark</title>
<path d="M0 11l2-2 5 5 11-11 2 2-13 13z"></path>
</symbol>
<symbol id="icon-checkmark-outline" viewBox="0 0 20 20">
<title>checkmark-outline</title>
<path d="M2.93 17.070c-1.884-1.821-3.053-4.37-3.053-7.193 0-5.523 4.477-10 10-10 2.823 0 5.372 1.169 7.19 3.050l0.003 0.003c1.737 1.796 2.807 4.247 2.807 6.947 0 5.523-4.477 10-10 10-2.7 0-5.151-1.070-6.95-2.81l0.003 0.003zM15.66 15.66c1.449-1.449 2.344-3.45 2.344-5.66 0-4.421-3.584-8.004-8.004-8.004-2.21 0-4.211 0.896-5.66 2.344v0c-1.449 1.449-2.344 3.45-2.344 5.66 0 4.421 3.584 8.004 8.004 8.004 2.21 0 4.211-0.896 5.66-2.344v0zM6.7 9.29l2.3 2.31 4.3-4.3 1.4 1.42-5.7 5.68-3.7-3.7 1.4-1.42z"></path>
</symbol>
<symbol id="icon-cheveron-outline-down" viewBox="0 0 20 20">
<title>cheveron-outline-down</title>
<path d="M20 10c0 5.523-4.477 10-10 10s-10-4.477-10-10v0c0-5.523 4.477-10 10-10s10 4.477 10 10v0zM10 2c-4.418 0-8 3.582-8 8s3.582 8 8 8v0c4.418 0 8-3.582 8-8s-3.582-8-8-8v0zM9.3 12.54l-3.55-3.54 1.41-1.41 2.84 2.81 2.83-2.82 1.41 1.42-4.24 4.24-0.7-0.7z"></path>
</symbol>
<symbol id="icon-cheveron-outline-left" viewBox="0 0 20 20">
<title>cheveron-outline-left</title>
<path d="M10 20c-5.523 0-10-4.477-10-10s4.477-10 10-10v0c5.523 0 10 4.477 10 10s-4.477 10-10 10v0zM18 10c0-4.418-3.582-8-8-8s-8 3.582-8 8v0c0 4.418 3.582 8 8 8s8-3.582 8-8v0zM7.46 9.3l3.54-3.55 1.41 1.41-2.81 2.84 2.82 2.83-1.42 1.41-4.24-4.24 0.7-0.7z"></path>
</symbol>
<symbol id="icon-cheveron-outline-right" viewBox="0 0 20 20">
<title>cheveron-outline-right</title>
<path d="M10 0c5.523 0 10 4.477 10 10s-4.477 10-10 10v0c-5.523 0-10-4.477-10-10s4.477-10 10-10v0zM2 10c0 4.418 3.582 8 8 8s8-3.582 8-8v0c0-4.418-3.582-8-8-8s-8 3.582-8 8v0zM12.54 10.7l-3.54 3.55-1.41-1.41 2.81-2.84-2.8-2.83 1.4-1.41 4.24 4.24-0.7 0.7z"></path>
</symbol>
<symbol id="icon-cheveron-outline-up" viewBox="0 0 20 20">
<title>cheveron-outline-up</title>
<path d="M0 10c0-5.523 4.477-10 10-10s10 4.477 10 10v0c0 5.523-4.477 10-10 10s-10-4.477-10-10v0zM10 18c4.418 0 8-3.582 8-8s-3.582-8-8-8v0c-4.418 0-8 3.582-8 8s3.582 8 8 8v0zM10.7 7.46l3.55 3.54-1.41 1.41-2.84-2.81-2.83 2.8-1.41-1.4 4.24-4.24 0.7 0.7z"></path>
</symbol>
<symbol id="icon-clipboard" viewBox="0 0 20 20">
<title>clipboard</title>
<path d="M7.030 2.6c0.215-1.465 1.462-2.577 2.97-2.577s2.755 1.112 2.968 2.561l0.002 0.016 2.030 0.4v1h1c1.105 0 2 0.895 2 2v0 12c0 1.105-0.895 2-2 2v0h-12c-1.105 0-2-0.895-2-2v0-12c0-1.1 0.9-2 2-2h1v-1l2.030-0.4zM5 6h-1v12h12v-12h-1v1h-10v-1zM10 4c0.552 0 1-0.448 1-1s-0.448-1-1-1v0c-0.552 0-1 0.448-1 1s0.448 1 1 1v0z"></path>
</symbol>
<symbol id="icon-close" viewBox="0 0 20 20">
<title>close</title>
<path d="M10 8.586l-7.071-7.071-1.414 1.414 7.071 7.071-7.071 7.071 1.414 1.414 7.071-7.071 7.071 7.071 1.414-1.414-7.071-7.071 7.071-7.071-1.414-1.414-7.071 7.071z"></path>
</symbol>
<symbol id="icon-close-outline" viewBox="0 0 20 20">
<title>close-outline</title>
<path d="M2.93 17.070c-1.884-1.821-3.053-4.37-3.053-7.193 0-5.523 4.477-10 10-10 2.823 0 5.372 1.169 7.19 3.050l0.003 0.003c1.737 1.796 2.807 4.247 2.807 6.947 0 5.523-4.477 10-10 10-2.7 0-5.151-1.070-6.95-2.81l0.003 0.003zM4.34 15.66c1.449 1.449 3.45 2.344 5.66 2.344 4.421 0 8.004-3.584 8.004-8.004 0-2.21-0.896-4.211-2.344-5.66v0c-1.449-1.449-3.45-2.344-5.66-2.344-4.421 0-8.004 3.584-8.004 8.004 0 2.21 0.896 4.211 2.344 5.66v0zM14.24 7.17l-2.83 2.83 2.83 2.83-1.41 1.41-2.83-2.83-2.83 2.83-1.41-1.41 2.83-2.83-2.83-2.83 1.41-1.41 2.83 2.83 2.83-2.83 1.41 1.41z"></path>
</symbol>
<symbol id="icon-close-solid" viewBox="0 0 20 20">
<title>close-solid</title>
<path d="M2.93 17.070c-1.884-1.821-3.053-4.37-3.053-7.193 0-5.523 4.477-10 10-10 2.823 0 5.372 1.169 7.19 3.050l0.003 0.003c1.737 1.796 2.807 4.247 2.807 6.947 0 5.523-4.477 10-10 10-2.7 0-5.151-1.070-6.95-2.81l0.003 0.003zM11.4 10l2.83-2.83-1.41-1.41-2.82 2.83-2.83-2.83-1.41 1.41 2.83 2.83-2.83 2.83 1.41 1.41 2.83-2.83 2.83 2.83 1.41-1.41-2.83-2.83z"></path>
</symbol>
<symbol id="icon-cog" viewBox="0 0 20 20">
<title>cog</title>
<path d="M3.94 6.5l-1.72-2.86 1.42-1.42 2.86 1.72c0.52-0.3 1.1-0.54 1.7-0.7l0.8-3.24h2l0.8 3.24c0.6 0.16 1.18 0.4 1.7 0.7l2.86-1.72 1.42 1.42-1.72 2.86c0.3 0.52 0.54 1.1 0.7 1.7l3.24 0.8v2l-3.24 0.8c-0.16 0.6-0.4 1.18-0.7 1.7l1.72 2.86-1.42 1.42-2.86-1.72c-0.52 0.3-1.1 0.54-1.7 0.7l-0.8 3.24h-2l-0.8-3.24c-0.6-0.16-1.18-0.4-1.7-0.7l-2.86 1.72-1.42-1.42 1.72-2.86c-0.3-0.52-0.54-1.1-0.7-1.7l-3.24-0.8v-2l3.24-0.8c0.16-0.6 0.4-1.18 0.7-1.7zM10 13c1.657 0 3-1.343 3-3s-1.343-3-3-3v0c-1.657 0-3 1.343-3 3s1.343 3 3 3v0z"></path>
</symbol>
<symbol id="icon-compose" viewBox="0 0 20 20">
<title>compose</title>
<path d="M2 4v14h14v-6l2-2v10h-18v-18h10l-2 2h-6zM12.3 3.7l4 4-8.3 8.3h-4v-4l8.3-8.3zM13.7 2.3l2.3-2.3 4 4-2.3 2.3-4-4z"></path>
</symbol>
<symbol id="icon-conversation" viewBox="0 0 20 20">
<title>conversation</title>
<path d="M17 11v3l-3-3h-6c-1.105 0-2-0.895-2-2v0-7c0-1.1 0.9-2 2-2h10c1.105 0 2 0.895 2 2v0 7c0 1.105-0.895 2-2 2v0h-1zM14 13v2c0 1.105-0.895 2-2 2v0h-6l-3 3v-3h-1c-1.105 0-2-0.895-2-2v0-7c0-1.1 0.9-2 2-2h2v3c0 2.209 1.791 4 4 4v0h6z"></path>
</symbol>
<symbol id="icon-dashboard" viewBox="0 0 20 20">
<title>dashboard</title>
<path d="M10 20c-5.523 0-10-4.477-10-10s4.477-10 10-10v0c5.523 0 10 4.477 10 10s-4.477 10-10 10v0zM4.4 15.71c1.568-1.080 3.509-1.725 5.6-1.725s4.032 0.645 5.634 1.747l-0.034-0.022c1.482-1.453 2.4-3.476 2.4-5.713 0-4.418-3.582-8-8-8s-8 3.582-8 8c0 2.237 0.918 4.26 2.399 5.712l0.001 0.001zM10.52 8.070l3.020-3.020 1.41 1.41-3.020 3.020c0.044 0.156 0.069 0.336 0.069 0.521 0 1.105-0.895 2-2 2s-2-0.895-2-2c0-1.105 0.895-2 2-2 0.185 0 0.365 0.025 0.535 0.072l-0.014-0.003z"></path>
</symbol>
<symbol id="icon-download" viewBox="0 0 20 20">
<title>download</title>
<path d="M13 8v-6h-6v6h-5l8 8 8-8h-5zM0 18h20v2h-20v-2z"></path>
</symbol>
<symbol id="icon-edit-cut" viewBox="0 0 20 20">
<title>edit-cut</title>
<path d="M9.77 11.5l5.34 3.91c0.44 0.33 1.24 0.59 1.79 0.59h3.1l-13.11-9.62c0.072-0.265 0.114-0.57 0.114-0.885 0-1.933-1.567-3.5-3.5-3.5s-3.5 1.567-3.5 3.5c0 1.933 1.567 3.5 3.5 3.5 0.747 0 1.439-0.234 2.008-0.633l-0.011 0.007 2.23 1.63-2.23 1.63c-0.56-0.396-1.256-0.634-2.009-0.634-1.933 0-3.5 1.567-3.5 3.5s1.567 3.5 3.5 3.5c1.933 0 3.5-1.567 3.5-3.5 0-0.311-0.041-0.613-0.117-0.901l0.006 0.024 2.9-2.12zM3.5 7c-0.828 0-1.5-0.672-1.5-1.5s0.672-1.5 1.5-1.5v0c0.828 0 1.5 0.672 1.5 1.5s-0.672 1.5-1.5 1.5v0zM3.5 16c-0.828 0-1.5-0.672-1.5-1.5s0.672-1.5 1.5-1.5v0c0.828 0 1.5 0.672 1.5 1.5s-0.672 1.5-1.5 1.5v0zM15.1 4.59c0.507-0.343 1.126-0.559 1.792-0.59l0.008-0h3.1l-7.5 5.5-2.050-1.5 4.65-3.41z"></path>
</symbol>
<symbol id="icon-edit-pencil" viewBox="0 0 20 20">
<title>edit-pencil</title>
<path d="M12.3 3.7l4 4-12.3 12.3h-4v-4l12.3-12.3zM13.7 2.3l2.3-2.3 4 4-2.3 2.3-4-4z"></path>
</symbol>
<symbol id="icon-exclamation-outline" viewBox="0 0 20 20">
<title>exclamation-outline</title>
<path d="M2.93 17.070c-1.884-1.821-3.053-4.37-3.053-7.193 0-5.523 4.477-10 10-10 2.823 0 5.372 1.169 7.19 3.050l0.003 0.003c1.737 1.796 2.807 4.247 2.807 6.947 0 5.523-4.477 10-10 10-2.7 0-5.151-1.070-6.95-2.81l0.003 0.003zM15.66 15.66c1.449-1.449 2.344-3.45 2.344-5.66 0-4.421-3.584-8.004-8.004-8.004-2.21 0-4.211 0.896-5.66 2.344v0c-1.449 1.449-2.344 3.45-2.344 5.66 0 4.421 3.584 8.004 8.004 8.004 2.21 0 4.211-0.896 5.66-2.344v0zM9 5h2v6h-2v-6zM9 13h2v2h-2v-2z"></path>
</symbol>
<symbol id="icon-exclamation-solid" viewBox="0 0 20 20">
<title>exclamation-solid</title>
<path d="M2.93 17.070c-1.884-1.821-3.053-4.37-3.053-7.193 0-5.523 4.477-10 10-10 2.823 0 5.372 1.169 7.19 3.050l0.003 0.003c1.737 1.796 2.807 4.247 2.807 6.947 0 5.523-4.477 10-10 10-2.7 0-5.151-1.070-6.95-2.81l0.003 0.003zM9 5v6h2v-6h-2zM9 13v2h2v-2h-2z"></path>
</symbol>
<symbol id="icon-folder" viewBox="0 0 20 20">
<title>folder</title>
<path d="M0 4c0-1.1 0.9-2 2-2h7l2 2h7c1.105 0 2 0.895 2 2v0 10c0 1.105-0.895 2-2 2v0h-16c-1.105 0-2-0.895-2-2v0-12z"></path>
</symbol>
<symbol id="icon-folder-outline" viewBox="0 0 20 20">
<title>folder-outline</title>
<path d="M0 4c0-1.1 0.9-2 2-2h7l2 2h7c1.105 0 2 0.895 2 2v0 10c0 1.105-0.895 2-2 2v0h-16c-1.105 0-2-0.895-2-2v0-12zM2 6v10h16v-10h-16z"></path>
</symbol>
<symbol id="icon-folder-outline-add" viewBox="0 0 20 20">
<title>folder-outline-add</title>
<path d="M0 4c0-1.1 0.9-2 2-2h7l2 2h7c1.105 0 2 0.895 2 2v0 10c0 1.105-0.895 2-2 2v0h-16c-1.105 0-2-0.895-2-2v0-12zM2 6v10h16v-10h-16zM9 10v-2h2v2h2v2h-2v2h-2v-2h-2v-2h2z"></path>
</symbol>
<symbol id="icon-format-bold" viewBox="0 0 20 20">
<title>format-bold</title>
<path d="M3 19v-18h8c0.002 0 0.003 0 0.005 0 2.761 0 5 2.239 5 5 0 1.203-0.425 2.306-1.132 3.169l0.007-0.009c1.296 1.016 2.121 2.582 2.121 4.34 0 3.038-2.462 5.5-5.5 5.5-0.001 0-0.001 0-0.002 0h-8.5zM10.5 11h-3.5v5h3.5c1.381 0 2.5-1.119 2.5-2.5s-1.119-2.5-2.5-2.5v0zM7 4v4h3c1.105 0 2-0.895 2-2s-0.895-2-2-2v0h-3z"></path>
</symbol>
<symbol id="icon-format-font-size" viewBox="0 0 20 20">
<title>format-font-size</title>
<path d="M16 9v8h-2v-8h-4v-2h10v2h-4zM8 5v12h-2v-12h-6v-2h15v2h-7z"></path>
</symbol>
<symbol id="icon-format-italic" viewBox="0 0 20 20">
<title>format-italic</title>
<path d="M8 1h9v2h-9v-2zM11 3h3l-6 14h-3l6-14zM2 17h9v2h-9v-2z"></path>
</symbol>
<symbol id="icon-format-text-size" viewBox="0 0 20 20">
<title>format-text-size</title>
<path d="M16 9v8h-2v-8h-4v-2h10v2h-4zM8 5v12h-2v-12h-6v-2h15v2h-7z"></path>
</symbol>
<symbol id="icon-format-underline" viewBox="0 0 20 20">
<title>format-underline</title>
<path d="M16 9c0 3.314-2.686 6-6 6s-6-2.686-6-6v0-8h3v8c0 1.657 1.343 3 3 3s3-1.343 3-3v0-8h3v8zM2 17h16v2h-16v-2z"></path>
</symbol>
<symbol id="icon-hard-drive" viewBox="0 0 20 20">
<title>hard-drive</title>
<path d="M2 2c0-1.1 0.9-2 2-2h12c1.105 0 2 0.895 2 2v0 16c0 1.105-0.895 2-2 2v0h-12c-1.105 0-2-0.895-2-2v0-16zM12.4 7.6c-0.693-0.386-1.52-0.614-2.4-0.614-2.761 0-5 2.239-5 5s2.239 5 5 5c2.757 0 4.992-2.231 5-4.986v-7.001l-2.6 2.6zM10 14c-1.105 0-2-0.895-2-2s0.895-2 2-2v0c1.105 0 2 0.895 2 2s-0.895 2-2 2v0zM6 3v2h4v-2h-4zM4 3c0.552 0 1-0.448 1-1s-0.448-1-1-1v0c-0.552 0-1 0.448-1 1s0.448 1 1 1v0zM4 19c0.552 0 1-0.448 1-1s-0.448-1-1-1v0c-0.552 0-1 0.448-1 1s0.448 1 1 1v0zM16 19c0.552 0 1-0.448 1-1s-0.448-1-1-1v0c-0.552 0-1 0.448-1 1s0.448 1 1 1v0zM16 3c0.552 0 1-0.448 1-1s-0.448-1-1-1v0c-0.552 0-1 0.448-1 1s0.448 1 1 1v0z"></path>
</symbol>
<symbol id="icon-information-outline" viewBox="0 0 20 20">
<title>information-outline</title>
<path d="M2.93 17.070c-1.884-1.821-3.053-4.37-3.053-7.193 0-5.523 4.477-10 10-10 2.823 0 5.372 1.169 7.19 3.050l0.003 0.003c1.737 1.796 2.807 4.247 2.807 6.947 0 5.523-4.477 10-10 10-2.7 0-5.151-1.070-6.95-2.81l0.003 0.003zM15.66 15.66c1.449-1.449 2.344-3.45 2.344-5.66 0-4.421-3.584-8.004-8.004-8.004-2.21 0-4.211 0.896-5.66 2.344v0c-1.449 1.449-2.344 3.45-2.344 5.66 0 4.421 3.584 8.004 8.004 8.004 2.21 0 4.211-0.896 5.66-2.344v0zM9 11v-2h2v6h-2v-4zM9 5h2v2h-2v-2z"></path>
</symbol>
<symbol id="icon-information-solid" viewBox="0 0 20 20">
<title>information-solid</title>
<path d="M2.93 17.070c-1.884-1.821-3.053-4.37-3.053-7.193 0-5.523 4.477-10 10-10 2.823 0 5.372 1.169 7.19 3.050l0.003 0.003c1.737 1.796 2.807 4.247 2.807 6.947 0 5.523-4.477 10-10 10-2.7 0-5.151-1.070-6.95-2.81l0.003 0.003zM9 11v4h2v-6h-2v2zM9 5v2h2v-2h-2z"></path>
</symbol>
<symbol id="icon-link" viewBox="0 0 20 20">
<title>link</title>
<path d="M9.26 13c-0.167-0.286-0.266-0.63-0.266-0.996 0-0.374 0.103-0.724 0.281-1.023l-0.005 0.009c1.549-0.13 2.757-1.419 2.757-2.99 0-1.657-1.343-3-3-3-0.009 0-0.019 0-0.028 0l0.001-0h-4c-1.657 0-3 1.343-3 3s1.343 3 3 3v0h0.080c-0.053 0.301-0.083 0.647-0.083 1s0.030 0.699 0.088 1.036l-0.005-0.036h-0.080c-2.761 0-5-2.239-5-5s2.239-5 5-5v0h4c0.039-0.001 0.084-0.002 0.13-0.002 2.762 0 5.002 2.239 5.002 5.002 0 2.717-2.166 4.927-4.865 5l-0.007 0zM10.74 7c0.167 0.286 0.266 0.63 0.266 0.996 0 0.374-0.103 0.724-0.281 1.023l0.005-0.009c-1.549 0.13-2.757 1.419-2.757 2.99 0 1.657 1.343 3 3 3 0.009 0 0.019-0 0.028-0l-0.001 0h4c1.657 0 3-1.343 3-3s-1.343-3-3-3v0h-0.080c0.053-0.301 0.083-0.647 0.083-1s-0.030-0.699-0.088-1.036l0.005 0.036h0.080c2.761 0 5 2.239 5 5s-2.239 5-5 5v0h-4c-0.039 0.001-0.084 0.002-0.13 0.002-2.762 0-5.002-2.239-5.002-5.002 0-2.717 2.166-4.927 4.865-5l0.007-0z"></path>
</symbol>
<symbol id="icon-lock-closed" viewBox="0 0 20 20">
<title>lock-closed</title>
<path d="M4 8v-2c0-3.314 2.686-6 6-6s6 2.686 6 6v0 2h1c1.105 0 2 0.895 2 2v0 8c0 1.105-0.895 2-2 2v0h-14c-1.105 0-2-0.895-2-2v0-8c0-1.1 0.9-2 2-2h1zM9 14.73v2.27h2v-2.27c0.602-0.352 1-0.996 1-1.732 0-1.105-0.895-2-2-2s-2 0.895-2 2c0 0.736 0.398 1.38 0.991 1.727l0.009 0.005zM7 6v2h6v-2c0-1.657-1.343-3-3-3s-3 1.343-3 3v0z"></path>
</symbol>
<symbol id="icon-lock-open" viewBox="0 0 20 20">
<title>lock-open</title>
<path d="M4 8v-2c0-3.314 2.686-6 6-6s6 2.686 6 6v0h-3v2h4c1.105 0 2 0.895 2 2v0 8c0 1.105-0.895 2-2 2v0h-14c-1.105 0-2-0.895-2-2v0-8c0-1.1 0.9-2 2-2h1zM9 14.73v2.27h2v-2.27c0.602-0.352 1-0.996 1-1.732 0-1.105-0.895-2-2-2s-2 0.895-2 2c0 0.736 0.398 1.38 0.991 1.727l0.009 0.005zM7 6v2h6v-2c0-1.657-1.343-3-3-3s-3 1.343-3 3v0z"></path>
</symbol>
<symbol id="icon-music-album" viewBox="0 0 20 20">
<title>music-album</title>
<path d="M0 0h20v20h-20v-20zM10 18c4.418 0 8-3.582 8-8s-3.582-8-8-8v0c-4.418 0-8 3.582-8 8s3.582 8 8 8v0zM10 13c-1.657 0-3-1.343-3-3s1.343-3 3-3v0c1.657 0 3 1.343 3 3s-1.343 3-3 3v0z"></path>
</symbol>
<symbol id="icon-network" viewBox="0 0 20 20">
<title>network</title>
<path d="M10 20c-5.523 0-10-4.477-10-10s4.477-10 10-10v0c5.523 0 10 4.477 10 10s-4.477 10-10 10v0zM17.75 12c0.161-0.6 0.254-1.289 0.254-2s-0.093-1.4-0.266-2.056l0.013 0.056h-3.82c0.044 0.598 0.070 1.296 0.070 2s-0.025 1.402-0.075 2.093l0.005-0.093h3.82zM16.93 14h-3.22c-0.186 1.31-0.518 2.493-0.985 3.605l0.035-0.095c1.782-0.67 3.226-1.9 4.15-3.472l0.020-0.038zM8.080 12h3.84c0.052-0.599 0.081-1.296 0.081-2s-0.030-1.401-0.088-2.090l0.006 0.090h-3.84c-0.052 0.599-0.081 1.296-0.081 2s0.030 1.401 0.088 2.090l-0.006-0.090zM8.33 14c0.41 2.4 1.13 4 1.67 4s1.26-1.6 1.67-4h-3.34zM2.25 12h3.82c-0.044-0.598-0.070-1.296-0.070-2s0.025-1.402 0.075-2.093l-0.005 0.093h-3.82c-0.161 0.6-0.254 1.289-0.254 2s0.093 1.4 0.266 2.056l-0.013-0.056zM3.070 14c0.944 1.61 2.388 2.84 4.115 3.492l0.055 0.018c-0.42-0.96-0.74-2.16-0.95-3.51h-3.22zM16.93 6c-0.944-1.61-2.388-2.84-4.115-3.492l-0.055-0.018c0.42 0.96 0.74 2.16 0.95 3.51h3.22zM8.33 6h3.34c-0.41-2.4-1.13-4-1.67-4s-1.26 1.6-1.67 4zM3.070 6h3.22c0.2-1.35 0.53-2.55 0.95-3.51-1.782 0.67-3.226 1.9-4.15 3.472l-0.020 0.038z"></path>
</symbol>
<symbol id="icon-question" viewBox="0 0 20 20">
<title>question</title>
<path d="M10 20c-5.523 0-10-4.477-10-10s4.477-10 10-10v0c5.523 0 10 4.477 10 10s-4.477 10-10 10v0zM12 7c0 0.28-0.21 0.8-0.42 1l-1.58 1.58c-0.57 0.58-1 1.6-1 2.42v1h2v-1c0-0.29 0.21-0.8 0.42-1l1.58-1.58c0.57-0.58 1-1.6 1-2.42 0-2.209-1.791-4-4-4s-4 1.791-4 4v0h2c0-1.105 0.895-2 2-2s2 0.895 2 2v0zM9 15v2h2v-2h-2z"></path>
</symbol>
<symbol id="icon-search" viewBox="0 0 20 20">
<title>search</title>
<path d="M12.9 14.32c-1.34 1.049-3.050 1.682-4.908 1.682-4.418 0-8-3.582-8-8s3.582-8 8-8c4.418 0 8 3.582 8 8 0 1.858-0.633 3.567-1.695 4.925l0.013-0.018 5.35 5.33-1.42 1.42-5.33-5.34zM8 14c3.314 0 6-2.686 6-6s-2.686-6-6-6v0c-3.314 0-6 2.686-6 6s2.686 6 6 6v0z"></path>
</symbol>
<symbol id="icon-view-hide" viewBox="0 0 20 20">
<title>view-hide</title>
<path d="M12.81 4.36l-1.77 1.78c-0.311-0.087-0.668-0.137-1.037-0.137-2.209 0-4 1.791-4 4 0 0.369 0.050 0.726 0.143 1.065l-0.007-0.028-2.76 2.75c-1.32-1-2.42-2.3-3.18-3.79 1.86-3.591 5.548-6.003 9.799-6.003 0.996 0 1.96 0.132 2.878 0.38l-0.077-0.018zM16.61 6.21c1.33 1 2.43 2.3 3.2 3.79-1.859 3.594-5.549 6.007-9.802 6.007-1.002 0-1.973-0.134-2.895-0.385l0.077 0.018 1.77-1.78c0.311 0.087 0.668 0.137 1.037 0.137 2.209 0 4-1.791 4-4 0-0.369-0.050-0.726-0.143-1.065l0.007 0.028 2.76-2.75zM16.36 2.22l1.42 1.42-14.14 14.14-1.42-1.42 14.14-14.14z"></path>
</symbol>
<symbol id="icon-view-show" viewBox="0 0 20 20">
<title>view-show</title>
<path d="M0.2 10c1.86-3.592 5.548-6.004 9.8-6.004s7.94 2.412 9.771 5.943l0.029 0.061c-1.86 3.592-5.548 6.004-9.8 6.004s-7.94-2.412-9.771-5.943l-0.029-0.061zM10 14c2.209 0 4-1.791 4-4s-1.791-4-4-4v0c-2.209 0-4 1.791-4 4s1.791 4 4 4v0zM10 12c-1.105 0-2-0.895-2-2s0.895-2 2-2v0c1.105 0 2 0.895 2 2s-0.895 2-2 2v0z"></path>
</symbol>
<symbol id="icon-chevron-down" viewBox="0 0 20 20">
<title>chevron-down</title>
<path d="M4.516 7.548c0.436-0.446 1.043-0.481 1.576 0l3.908 3.747 3.908-3.747c0.533-0.481 1.141-0.446 1.574 0 0.436 0.445 0.408 1.197 0 1.615-0.406 0.418-4.695 4.502-4.695 4.502-0.217 0.223-0.502 0.335-0.787 0.335s-0.57-0.112-0.789-0.335c0 0-4.287-4.084-4.695-4.502s-0.436-1.17 0-1.615z"></path>
</symbol>
<symbol id="icon-chevron-left" viewBox="0 0 20 20">
<title>chevron-left</title>
<path d="M12.452 4.516c0.446 0.436 0.481 1.043 0 1.576l-3.747 3.908 3.747 3.908c0.481 0.533 0.446 1.141 0 1.574-0.445 0.436-1.197 0.408-1.615 0-0.418-0.406-4.502-4.695-4.502-4.695-0.223-0.217-0.335-0.502-0.335-0.787s0.112-0.57 0.335-0.789c0 0 4.084-4.287 4.502-4.695s1.17-0.436 1.615 0z"></path>
</symbol>
<symbol id="icon-chevron-right" viewBox="0 0 20 20">
<title>chevron-right</title>
<path d="M9.163 4.516c0.418 0.408 4.502 4.695 4.502 4.695 0.223 0.219 0.335 0.504 0.335 0.789s-0.112 0.57-0.335 0.787c0 0-4.084 4.289-4.502 4.695-0.418 0.408-1.17 0.436-1.615 0-0.446-0.434-0.481-1.041 0-1.574l3.747-3.908-3.747-3.908c-0.481-0.533-0.446-1.141 0-1.576s1.197-0.409 1.615 0z"></path>
</symbol>
<symbol id="icon-chevron-small-down" viewBox="0 0 20 20">
<title>chevron-small-down</title>
<path d="M13.418 7.859c0.271-0.268 0.709-0.268 0.978 0s0.272 0.701 0 0.969l-3.908 3.83c-0.27 0.268-0.707 0.268-0.979 0l-3.908-3.83c-0.27-0.267-0.27-0.701 0-0.969s0.709-0.268 0.978 0l3.421 3.141 3.418-3.141z"></path>
</symbol>
<symbol id="icon-chevron-small-left" viewBox="0 0 20 20">
<title>chevron-small-left</title>
<path d="M12.141 13.418c0.268 0.271 0.268 0.709 0 0.978s-0.701 0.272-0.969 0l-3.83-3.908c-0.268-0.27-0.268-0.707 0-0.979l3.83-3.908c0.267-0.27 0.701-0.27 0.969 0s0.268 0.709 0 0.978l-3.141 3.421 3.141 3.418z"></path>
</symbol>
<symbol id="icon-chevron-small-right" viewBox="0 0 20 20">
<title>chevron-small-right</title>
<path d="M11 10l-3.141-3.42c-0.268-0.27-0.268-0.707 0-0.978 0.268-0.27 0.701-0.27 0.969 0l3.83 3.908c0.268 0.271 0.268 0.709 0 0.979l-3.83 3.908c-0.267 0.272-0.701 0.27-0.969 0s-0.268-0.707 0-0.978l3.141-3.419z"></path>
</symbol>
<symbol id="icon-chevron-small-up" viewBox="0 0 20 20">
<title>chevron-small-up</title>
<path d="M6.582 12.141c-0.271 0.268-0.709 0.268-0.978 0s-0.272-0.701 0-0.969l3.908-3.83c0.27-0.268 0.707-0.268 0.979 0l3.908 3.83c0.27 0.267 0.27 0.701 0 0.969s-0.709 0.268-0.979 0l-3.42-3.141-3.418 3.141z"></path>
</symbol>
<symbol id="icon-chevron-thin-down" viewBox="0 0 20 20">
<title>chevron-thin-down</title>
<path d="M17.418 6.109c0.272-0.268 0.709-0.268 0.979 0s0.271 0.701 0 0.969l-7.908 7.83c-0.27 0.268-0.707 0.268-0.979 0l-7.908-7.83c-0.27-0.268-0.27-0.701 0-0.969s0.709-0.268 0.979 0l7.419 7.141 7.418-7.141z"></path>
</symbol>
<symbol id="icon-chevron-thin-left" viewBox="0 0 20 20">
<title>chevron-thin-left</title>
<path d="M13.891 17.418c0.268 0.272 0.268 0.709 0 0.979s-0.701 0.271-0.969 0l-7.83-7.908c-0.268-0.27-0.268-0.707 0-0.979l7.83-7.908c0.268-0.27 0.701-0.27 0.969 0s0.268 0.709 0 0.979l-7.141 7.419 7.141 7.418z"></path>
</symbol>
<symbol id="icon-chevron-thin-right" viewBox="0 0 20 20">
<title>chevron-thin-right</title>
<path d="M13.25 10l-7.141-7.42c-0.268-0.27-0.268-0.707 0-0.979 0.268-0.27 0.701-0.27 0.969 0l7.83 7.908c0.268 0.271 0.268 0.709 0 0.979l-7.83 7.908c-0.268 0.271-0.701 0.27-0.969 0s-0.268-0.707 0-0.979l7.141-7.417z"></path>
</symbol>
<symbol id="icon-chevron-thin-up" viewBox="0 0 20 20">
<title>chevron-thin-up</title>
<path d="M2.582 13.891c-0.272 0.268-0.709 0.268-0.979 0s-0.271-0.701 0-0.969l7.908-7.83c0.27-0.268 0.707-0.268 0.979 0l7.908 7.83c0.27 0.268 0.27 0.701 0 0.969s-0.709 0.268-0.978 0l-7.42-7.141-7.418 7.141z"></path>
</symbol>
<symbol id="icon-chevron-up" viewBox="0 0 20 20">
<title>chevron-up</title>
<path d="M15.484 12.452c-0.436 0.446-1.043 0.481-1.576 0l-3.908-3.747-3.908 3.747c-0.533 0.481-1.141 0.446-1.574 0-0.436-0.445-0.408-1.197 0-1.615 0.406-0.418 4.695-4.502 4.695-4.502 0.217-0.223 0.502-0.335 0.787-0.335s0.57 0.112 0.789 0.335c0 0 4.287 4.084 4.695 4.502s0.436 1.17 0 1.615z"></path>
</symbol>
<symbol id="icon-dots-three-horizontal" viewBox="0 0 20 20">
<title>dots-three-horizontal</title>
<path d="M10.001 7.8c-1.215 0-2.201 0.985-2.201 2.2s0.986 2.2 2.201 2.2c1.215 0 2.199-0.985 2.199-2.2s-0.984-2.2-2.199-2.2zM3.001 7.8c-1.215 0-2.201 0.985-2.201 2.2s0.986 2.2 2.201 2.2c1.215 0 2.199-0.986 2.199-2.2s-0.984-2.2-2.199-2.2zM17.001 7.8c-1.215 0-2.201 0.985-2.201 2.2s0.986 2.2 2.201 2.2c1.215 0 2.199-0.985 2.199-2.2s-0.984-2.2-2.199-2.2z"></path>
</symbol>
<symbol id="icon-dots-three-vertical" viewBox="0 0 20 20">
<title>dots-three-vertical</title>
<path d="M10.001 7.8c-1.215 0-2.201 0.985-2.201 2.2s0.986 2.2 2.201 2.2c1.215 0 2.199-0.985 2.199-2.2s-0.984-2.2-2.199-2.2zM10.001 5.2c1.215 0 2.199-0.986 2.199-2.2s-0.984-2.2-2.199-2.2c-1.215 0-2.201 0.985-2.201 2.2s0.986 2.2 2.201 2.2zM10.001 14.8c-1.215 0-2.201 0.985-2.201 2.2s0.986 2.2 2.201 2.2c1.215 0 2.199-0.985 2.199-2.2s-0.984-2.2-2.199-2.2z"></path>
</symbol>
<symbol id="icon-save" viewBox="0 0 20 20">
<title>save</title>
<path d="M15.173 2h-11.173c-1.101 0-2 0.9-2 2v12c0 1.1 0.899 2 2 2h12c1.101 0 2-0.9 2-2v-10.873l-2.827-3.127zM14 8c0 0.549-0.45 1-1 1h-6c-0.55 0-1-0.451-1-1v-5h8v5zM13 4h-2v4h2v-4z"></path>
</symbol>
<symbol id="icon-trash" viewBox="0 0 20 20">
<title>trash</title>
<path d="M3.389 7.113l1.101 10.908c0.061 0.461 2.287 1.977 5.51 1.979 3.225-0.002 5.451-1.518 5.511-1.979l1.102-10.908c-1.684 0.942-4.201 1.387-6.613 1.387-2.41 0-4.928-0.445-6.611-1.387zM13.168 1.51l-0.859-0.951c-0.332-0.473-0.692-0.559-1.393-0.559h-1.831c-0.7 0-1.061 0.086-1.392 0.559l-0.859 0.951c-2.57 0.449-4.434 1.64-4.434 2.519v0.17c0 1.547 3.403 2.801 7.6 2.801 4.198 0 7.601-1.254 7.601-2.801v-0.17c0-0.879-1.863-2.070-4.433-2.519zM12.070 4.34l-1.070-1.34h-2l-1.068 1.34h-1.7c0 0 1.862-2.221 2.111-2.522 0.19-0.23 0.384-0.318 0.636-0.318h2.043c0.253 0 0.447 0.088 0.637 0.318 0.248 0.301 2.111 2.522 2.111 2.522h-1.7z"></path>
</symbol>
<symbol id="icon-archive" viewBox="0 0 20 20">
<title>archive</title>
<path d="M13.981 2h-7.963c0 0-0.996 0-0.996 1h9.955c0-1-0.996-1-0.996-1zM16.968 5c0-1-0.995-1-0.995-1h-11.946c0 0-0.995 0-0.995 1v1h13.936v-1zM18.958 6c-0.588-0.592-0.588-0.592-0.588-0.592v1.592h-16.74v-1.592c0 0 0 0-0.589 0.592s-1.011 0.75-0.774 2c0.236 1.246 1.379 8.076 1.549 9 0.186 1.014 1.217 1 1.217 1h13.936c0 0 1.030 0.014 1.217-1 0.17-0.924 1.312-7.754 1.549-9 0.235-1.25-0.187-1.408-0.777-2zM14 11.997c0 0.554-0.449 1.003-1.003 1.003h-5.994c-0.554 0-1.003-0.449-1.003-1.003v-1.997h1v2h6v-2h1v1.997z"></path>
</symbol>
<symbol id="icon-bell" viewBox="0 0 20 20">
<title>bell</title>
<path d="M14.65 8.512c-2.28-4.907-3.466-6.771-7.191-6.693-1.327 0.027-1.009-0.962-2.021-0.587-1.010 0.375-0.143 0.924-1.177 1.773-2.902 2.383-2.635 4.587-1.289 9.84 0.567 2.213-1.367 2.321-0.602 4.465 0.559 1.564 4.679 2.219 9.025 0.607s7.086-4.814 6.527-6.378c-0.765-2.145-2.311-0.961-3.272-3.027zM10.924 16.595c-3.882 1.44-7.072 0.594-7.207 0.217-0.232-0.65 1.253-2.816 5.691-4.463s6.915-1.036 7.174-0.311c0.153 0.429-1.775 3.116-5.658 4.557zM9.676 13.101c-2.029 0.753-3.439 1.614-4.353 2.389 0.643 0.584 1.847 0.726 3.046 0.281 1.527-0.565 2.466-1.866 2.095-2.904-0.005-0.013-0.011-0.023-0.016-0.036-0.251 0.082-0.508 0.171-0.772 0.27z"></path>
</symbol>
<symbol id="icon-check" viewBox="0 0 20 20">
<title>check</title>
<path d="M8.294 16.998c-0.435 0-0.847-0.203-1.111-0.553l-3.573-4.721c-0.465-0.613-0.344-1.486 0.27-1.951 0.615-0.467 1.488-0.344 1.953 0.27l2.351 3.104 5.911-9.492c0.407-0.652 1.267-0.852 1.921-0.445s0.854 1.266 0.446 1.92l-6.984 11.21c-0.242 0.391-0.661 0.635-1.12 0.656-0.022 0.002-0.042 0.002-0.064 0.002z"></path>
</symbol>
<symbol id="icon-clipboard1" viewBox="0 0 20 20">
<title>clipboard1</title>
<path d="M15.6 2l-1.2 3h-8.8l-1.2-3c-0.771 0-1.4 0.629-1.4 1.4v15.2c0 0.77 0.629 1.4 1.399 1.4h11.2c0.77 0 1.4-0.631 1.4-1.4v-15.2c0.001-0.771-0.63-1.4-1.399-1.4zM13.6 4l0.9-2h-2.181l-0.719-2h-3.2l-0.72 2h-2.18l0.899 2h7.201z"></path>
</symbol>
<symbol id="icon-code1" viewBox="0 0 20 20">
<title>code1</title>
<path d="M5.719 14.75c-0.236 0-0.474-0.083-0.664-0.252l-5.060-4.498 5.341-4.748c0.412-0.365 1.044-0.33 1.411 0.083s0.33 1.045-0.083 1.412l-3.659 3.253 3.378 3.002c0.413 0.367 0.45 0.999 0.083 1.412-0.197 0.223-0.472 0.336-0.747 0.336zM14.664 14.748l5.341-4.748-5.060-4.498c-0.413-0.367-1.045-0.33-1.411 0.083s-0.33 1.045 0.083 1.412l3.378 3.003-3.659 3.252c-0.413 0.367-0.45 0.999-0.083 1.412 0.197 0.223 0.472 0.336 0.747 0.336 0.236 0 0.474-0.083 0.664-0.252zM9.986 16.165l2-12c0.091-0.545-0.277-1.060-0.822-1.151-0.547-0.092-1.061 0.277-1.15 0.822l-2 12c-0.091 0.545 0.277 1.060 0.822 1.151 0.056 0.009 0.11 0.013 0.165 0.013 0.48 0 0.904-0.347 0.985-0.835z"></path>
</symbol>
<symbol id="icon-forward" viewBox="0 0 20 20">
<title>forward</title>
<path d="M12 11.874v4.357l7-6.69-7-6.572v3.983c-8.775 0-11 9.732-11 9.732 2.484-4.388 6.237-4.81 11-4.81z"></path>
</symbol>
<symbol id="icon-grid" viewBox="0 0 20 20">
<title>grid</title>
<path d="M8 4h-3c-0.553 0-1 0.447-1 1v3c0 0.552 0.447 1 1 1h3c0.553 0 1-0.448 1-1v-3c0-0.552-0.447-1-1-1zM15 4h-3c-0.553 0-1 0.447-1 1v3c0 0.552 0.447 1 1 1h3c0.553 0 1-0.448 1-1v-3c0-0.552-0.447-1-1-1zM8 11h-3c-0.553 0-1 0.447-1 1v3c0 0.552 0.447 1 1 1h3c0.553 0 1-0.448 1-1v-3c0-0.552-0.447-1-1-1zM15 11h-3c-0.553 0-1 0.447-1 1v3c0 0.552 0.447 1 1 1h3c0.553 0 1-0.448 1-1v-3c0-0.552-0.447-1-1-1z"></path>
</symbol>
<symbol id="icon-heart-outlined" viewBox="0 0 20 20">
<title>heart-outlined</title>
<path d="M17.19 4.156c-1.672-1.535-4.383-1.535-6.055 0l-1.135 1.041-1.136-1.041c-1.672-1.535-4.382-1.535-6.054 0-1.881 1.726-1.881 4.519 0 6.245l7.19 6.599 7.19-6.599c1.88-1.726 1.88-4.52 0-6.245zM16.124 9.375l-6.124 5.715-6.125-5.715c-0.617-0.567-0.856-1.307-0.856-2.094s0.138-1.433 0.756-1.999c0.545-0.501 1.278-0.777 2.063-0.777s1.517 0.476 2.062 0.978l2.1 1.825 2.099-1.826c0.546-0.502 1.278-0.978 2.063-0.978s1.518 0.276 2.063 0.777c0.618 0.566 0.755 1.212 0.755 1.999s-0.238 1.528-0.856 2.095z"></path>
</symbol>
<symbol id="icon-heart" viewBox="0 0 20 20">
<title>heart</title>
<path d="M17.19 4.155c-1.672-1.534-4.383-1.534-6.055 0l-1.135 1.042-1.136-1.042c-1.672-1.534-4.382-1.534-6.054 0-1.881 1.727-1.881 4.52 0 6.246l7.19 6.599 7.19-6.599c1.88-1.726 1.88-4.52 0-6.246z"></path>
</symbol>
<symbol id="icon-help-with-circle" viewBox="0 0 20 20">
<title>help-with-circle</title>
<path d="M10 0.4c-5.302 0-9.6 4.298-9.6 9.6s4.298 9.6 9.6 9.6c5.301 0 9.6-4.298 9.6-9.601 0-5.301-4.299-9.599-9.6-9.599zM9.849 15.599h-0.051c-0.782-0.023-1.334-0.6-1.311-1.371 0.022-0.758 0.587-1.309 1.343-1.309l0.046 0.002c0.804 0.023 1.35 0.594 1.327 1.387-0.023 0.76-0.578 1.291-1.354 1.291zM13.14 9.068c-0.184 0.26-0.588 0.586-1.098 0.983l-0.562 0.387c-0.308 0.24-0.494 0.467-0.563 0.688-0.056 0.174-0.082 0.221-0.087 0.576v0.090h-2.145l0.006-0.182c0.027-0.744 0.045-1.184 0.354-1.547 0.485-0.568 1.555-1.258 1.6-1.287 0.154-0.115 0.283-0.246 0.379-0.387 0.225-0.311 0.324-0.555 0.324-0.793 0-0.334-0.098-0.643-0.293-0.916-0.188-0.266-0.545-0.398-1.061-0.398-0.512 0-0.863 0.162-1.072 0.496-0.216 0.341-0.325 0.7-0.325 1.067v0.092h-2.211l0.004-0.096c0.057-1.353 0.541-2.328 1.435-2.897 0.563-0.361 1.264-0.544 2.081-0.544 1.068 0 1.972 0.26 2.682 0.772 0.721 0.519 1.086 1.297 1.086 2.311-0.001 0.567-0.18 1.1-0.534 1.585z"></path>
</symbol>
<symbol id="icon-help" viewBox="0 0 20 20">
<title>help</title>
<path d="M14.090 2.233c-1.14-0.822-2.572-1.233-4.296-1.233-1.311 0-2.418 0.289-3.317 0.868-1.427 0.906-2.185 2.445-2.277 4.615h3.307c0-0.633 0.185-1.24 0.553-1.828 0.369-0.586 0.995-0.879 1.878-0.879 0.898 0 1.517 0.238 1.854 0.713 0.339 0.477 0.508 1.004 0.508 1.582 0 0.504-0.252 0.965-0.557 1.383-0.167 0.244-0.387 0.469-0.661 0.674 0 0-1.793 1.15-2.58 2.074-0.456 0.535-0.497 1.338-0.538 2.488-0.002 0.082 0.029 0.252 0.315 0.252s2.316 0 2.571 0c0.256 0 0.309-0.189 0.312-0.274 0.018-0.418 0.064-0.633 0.141-0.875 0.144-0.457 0.538-0.855 0.979-1.199l0.91-0.627c0.822-0.641 1.477-1.166 1.767-1.578 0.494-0.676 0.842-1.51 0.842-2.5-0.001-1.615-0.571-2.832-1.711-3.656zM9.741 14.924c-1.139-0.035-2.079 0.754-2.115 1.99-0.035 1.234 0.858 2.051 1.998 2.084 1.189 0.035 2.104-0.727 2.141-1.963 0.034-1.236-0.834-2.076-2.024-2.111z"></path>
</symbol>
<symbol id="icon-home1" viewBox="0 0 20 20">
<title>home1</title>
<path d="M18.672 11h-1.672v6c0 0.445-0.194 1-1 1h-4v-6h-4v6h-4c-0.806 0-1-0.555-1-1v-6h-1.672c-0.598 0-0.47-0.324-0.060-0.748l8.024-8.032c0.195-0.202 0.451-0.302 0.708-0.312 0.257 0.010 0.513 0.109 0.708 0.312l8.023 8.031c0.411 0.425 0.539 0.749-0.059 0.749z"></path>
</symbol>
<symbol id="icon-image-inverted" viewBox="0 0 20 20">
<title>image-inverted</title>
<path d="M18 3h-16c-0.553 0-1 0.447-1 1v12c0 0.552 0.447 1 1 1h16c0.553 0 1-0.448 1-1v-12c0-0.552-0.447-1-1-1zM13.25 6.5c0.69 0 1.25 0.56 1.25 1.25s-0.56 1.25-1.25 1.25-1.25-0.56-1.25-1.25 0.56-1.25 1.25-1.25zM4 14l3.314-7.619 3.769 6.102 3.231-1.605 1.686 3.122h-12z"></path>
</symbol>
<symbol id="icon-image" viewBox="0 0 20 20">
<title>image</title>
<path d="M19 2h-18c-0.553 0-1 0.447-1 1v14c0 0.552 0.447 1 1 1h18c0.553 0 1-0.448 1-1v-14c0-0.552-0.447-1-1-1zM18 16h-16v-12h16v12zM14.315 10.877l-3.231 1.605-3.77-6.101-3.314 7.619h12l-1.685-3.123zM13.25 9c0.69 0 1.25-0.56 1.25-1.25s-0.56-1.25-1.25-1.25-1.25 0.56-1.25 1.25 0.56 1.25 1.25 1.25z"></path>
</symbol>
<symbol id="icon-images" viewBox="0 0 20 20">
<title>images</title>
<path d="M17.125 6.17l-2.046-5.635c-0.151-0.416-0.595-0.637-0.989-0.492l-13.598 4.963c-0.394 0.144-0.593 0.597-0.441 1.013l2.156 5.941v-3.183c0-1.438 1.148-2.607 2.56-2.607h3.593l4.285-3.008 2.479 3.008h2.001zM19.238 8h-14.471c-0.42 0-0.762 0.334-0.762 0.777v9.42c0.001 0.444 0.343 0.803 0.762 0.803h14.471c0.42 0 0.762-0.359 0.762-0.803v-9.42c0-0.443-0.342-0.777-0.762-0.777zM18 17h-12v-2l1.984-4.018 2.768 3.436 2.598-2.662 3.338-1.205 1.312 3.449v3z"></path>
</symbol>
<symbol id="icon-info-with-circle" viewBox="0 0 20 20">
<title>info-with-circle</title>
<path d="M10 0.4c-5.303 0-9.601 4.298-9.601 9.6 0 5.303 4.298 9.601 9.601 9.601 5.301 0 9.6-4.298 9.6-9.601s-4.299-9.6-9.6-9.6zM10.896 3.866c0.936 0 1.211 0.543 1.211 1.164 0 0.775-0.62 1.492-1.679 1.492-0.886 0-1.308-0.445-1.282-1.182 0-0.621 0.519-1.474 1.75-1.474zM8.498 15.75c-0.64 0-1.107-0.389-0.66-2.094l0.733-3.025c0.127-0.484 0.148-0.678 0-0.678-0.191 0-1.022 0.334-1.512 0.664l-0.319-0.523c1.555-1.299 3.343-2.061 4.108-2.061 0.64 0 0.746 0.756 0.427 1.92l-0.84 3.18c-0.149 0.562-0.085 0.756 0.064 0.756 0.192 0 0.82-0.232 1.438-0.719l0.362 0.486c-1.513 1.512-3.162 2.094-3.801 2.094z"></path>
</symbol>
<symbol id="icon-info" viewBox="0 0 20 20">
<title>info</title>
<path d="M12.432 0c1.34 0 2.010 0.912 2.010 1.957 0 1.305-1.164 2.512-2.679 2.512-1.269 0-2.009-0.75-1.974-1.99 0-1.043 0.881-2.479 2.643-2.479zM8.309 20c-1.058 0-1.833-0.652-1.093-3.524l1.214-5.092c0.211-0.814 0.246-1.141 0-1.141-0.317 0-1.689 0.562-2.502 1.117l-0.528-0.88c2.572-2.186 5.531-3.467 6.801-3.467 1.057 0 1.233 1.273 0.705 3.23l-1.391 5.352c-0.246 0.945-0.141 1.271 0.106 1.271 0.317 0 1.357-0.392 2.379-1.207l0.6 0.814c-2.502 2.547-5.235 3.527-6.291 3.527z"></path>
</symbol>
<symbol id="icon-magnifying-glass" viewBox="0 0 20 20">
<title>magnifying-glass</title>
<path d="M17.545 15.467l-3.779-3.779c0.57-0.935 0.898-2.035 0.898-3.21 0-3.417-2.961-6.377-6.378-6.377s-6.186 2.769-6.186 6.186c0 3.416 2.961 6.377 6.377 6.377 1.137 0 2.2-0.309 3.115-0.844l3.799 3.801c0.372 0.371 0.975 0.371 1.346 0l0.943-0.943c0.371-0.371 0.236-0.84-0.135-1.211zM4.004 8.287c0-2.366 1.917-4.283 4.282-4.283s4.474 2.107 4.474 4.474c0 2.365-1.918 4.283-4.283 4.283s-4.473-2.109-4.473-4.474z"></path>
</symbol>
<symbol id="icon-mail" viewBox="0 0 20 20">
<title>mail</title>
<path d="M1.574 5.286c0.488 0.262 7.248 3.894 7.5 4.029s0.578 0.199 0.906 0.199c0.328 0 0.654-0.064 0.906-0.199s7.012-3.767 7.5-4.029c0.489-0.263 0.951-1.286 0.054-1.286h-16.919c-0.897 0-0.435 1.023 0.053 1.286zM18.613 7.489c-0.555 0.289-7.387 3.849-7.727 4.027s-0.578 0.199-0.906 0.199-0.566-0.021-0.906-0.199-7.133-3.739-7.688-4.028c-0.39-0.204-0.386 0.035-0.386 0.219s0 7.293 0 7.293c0 0.42 0.566 1 1 1h16c0.434 0 1-0.58 1-1 0 0 0-7.108 0-7.292s0.004-0.423-0.387-0.219z"></path>
</symbol>
<symbol id="icon-menu" viewBox="0 0 20 20">
<title>menu</title>
<path d="M16.4 9h-12.8c-0.552 0-0.6 0.447-0.6 1s0.048 1 0.6 1h12.8c0.552 0 0.6-0.447 0.6-1s-0.048-1-0.6-1zM16.4 13h-12.8c-0.552 0-0.6 0.447-0.6 1s0.048 1 0.6 1h12.8c0.552 0 0.6-0.447 0.6-1s-0.048-1-0.6-1zM3.6 7h12.8c0.552 0 0.6-0.447 0.6-1s-0.048-1-0.6-1h-12.8c-0.552 0-0.6 0.447-0.6 1s0.048 1 0.6 1z"></path>
</symbol>
<symbol id="icon-mic" viewBox="0 0 20 20">
<title>mic</title>
<path d="M16.399 7.643v2.757c0 2.236-1.643 4.629-5.399 4.959v2.641h2.6c0.22 0 0.4 0.18 0.4 0.4v1.2c0 0.221-0.181 0.4-0.4 0.4h-7.2c-0.22 0-0.4-0.18-0.4-0.4v-1.2c0-0.22 0.18-0.4 0.399-0.4h2.601v-2.641c-3.758-0.33-5.4-2.723-5.4-4.959v-2.757c0-0.221 0.18-0.4 0.4-0.4h0.6c0.22 0 0.4 0.18 0.4 0.4v2.757c0 1.336 1.053 3.6 5 3.6s5-2.264 5-3.6v-2.757c0-0.221 0.18-0.4 0.399-0.4h0.601c0.22-0.001 0.399 0.179 0.399 0.4zM10 12c2.346 0 3-0.965 3-1.6v-3.158h-6v3.158c0 0.635 0.652 1.6 3 1.6zM13 1.6c0-0.637-0.654-1.6-3-1.6-2.348 0-3 0.963-3 1.6v4.242h6v-4.242z"></path>
</symbol>
<symbol id="icon-minus" viewBox="0 0 20 20">
<title>minus</title>
<path d="M16 10c0 0.553-0.048 1-0.601 1h-10.798c-0.552 0-0.601-0.447-0.601-1s0.049-1 0.601-1h10.799c0.552 0 0.6 0.447 0.6 1z"></path>
</symbol>
<symbol id="icon-pie-chart" viewBox="0 0 20 20">
<title>pie-chart</title>
<path d="M11 0.958v9.039c0 0.554-0.449 1.003-1.003 1.003h-9.039c0.498 4.555 4.355 8.1 9.042 8.1 5.026 0 9.1-4.074 9.1-9.1 0-4.688-3.545-8.544-8.1-9.042zM9 0.958c-4.226 0.462-7.58 3.816-8.042 8.042h8.042v-8.042z"></path>
</symbol>
<symbol id="icon-plus" viewBox="0 0 20 20">
<title>plus</title>
<path d="M16 10c0 0.553-0.048 1-0.601 1h-4.399v4.399c0 0.552-0.447 0.601-1 0.601s-1-0.049-1-0.601v-4.399h-4.399c-0.552 0-0.601-0.447-0.601-1s0.049-1 0.601-1h4.399v-4.399c0-0.553 0.447-0.601 1-0.601s1 0.048 1 0.601v4.399h4.399c0.553 0 0.601 0.447 0.601 1z"></path>
</symbol>
<symbol id="icon-print" viewBox="0 0 20 20">
<title>print</title>
<path d="M1.501 6h17c0.57 0 0.477-0.608 0.193-0.707-0.285-0.099-3.443-1.293-3.994-1.293h-0.7v-3h-8v3h-0.699c-0.55 0-3.709 1.194-3.993 1.293s-0.377 0.707 0.193 0.707zM19 7h-18c-0.55 0-1 0.45-1 1v5c0 0.551 0.45 1 1 1h2.283l-0.882 5h15.199l-0.883-5h2.283c0.551 0 1-0.449 1-1v-5c0-0.55-0.449-1-1-1zM4.603 17l1.198-7.003h8.399l1.199 7.003h-10.796z"></path>
</symbol>
<symbol id="icon-reply-all" viewBox="0 0 20 20">
<title>reply-all</title>
<path d="M7.225 5.767v-2.681l-7.225 6.456 7.225 6.691v-2.777l-4.225-3.914 4.225-3.775zM12.225 6.953v-3.867l-7.225 6.456 7.225 6.691v-4.357c3.292 0 5.291 0.422 7.775 4.81 0-0.001-0.368-9.733-7.775-9.733z"></path>
</symbol>
<symbol id="icon-reply" viewBox="0 0 20 20">
<title>reply</title>
<path d="M19 16.685c0 0-2.225-9.732-11-9.732v-3.984l-7 6.573 7 6.69v-4.357c4.763-0.001 8.516 0.421 11 4.81z"></path>
</symbol>
<symbol id="icon-share" viewBox="0 0 20 20">
<title>share</title>
<path d="M15 13.442c-0.633 0-1.204 0.246-1.637 0.642l-5.938-3.463c0.046-0.188 0.075-0.384 0.075-0.584s-0.029-0.395-0.075-0.583l5.875-3.429c0.446 0.417 1.042 0.675 1.7 0.675 1.379 0 2.5-1.121 2.5-2.5s-1.121-2.5-2.5-2.5-2.5 1.121-2.5 2.5c0 0.2 0.029 0.396 0.075 0.583l-5.875 3.429c-0.446-0.416-1.042-0.675-1.7-0.675-1.379 0-2.5 1.121-2.5 2.5s1.121 2.5 2.5 2.5c0.658 0 1.254-0.258 1.7-0.675l5.938 3.463c-0.042 0.175-0.067 0.358-0.067 0.546 0 1.342 1.087 2.429 2.429 2.429s2.429-1.088 2.429-2.429-1.087-2.429-2.429-2.429z"></path>
</symbol>
<symbol id="icon-github-with-circle" viewBox="0 0 20 20">
<title>github-with-circle</title>
<path d="M10.015 9.949c0 0-0.010 0-0.015 0h-0.015c-1.191 0-2.24-0.303-2.861 0.268-0.371 0.342-0.527 0.754-0.527 1.197 0 1.852 1.483 2.080 3.389 2.080h0.029c1.905 0 3.389-0.229 3.389-2.080 0-0.443-0.156-0.856-0.527-1.197-0.622-0.571-1.671-0.268-2.862-0.268zM8.393 12.48c-0.363 0-0.656-0.408-0.656-0.91s0.293-0.908 0.656-0.908c0.363 0 0.657 0.406 0.657 0.908s-0.293 0.91-0.657 0.91zM11.606 12.48c-0.363 0-0.657-0.408-0.657-0.91s0.294-0.908 0.657-0.908c0.362 0 0.656 0.406 0.656 0.908s-0.293 0.91-0.656 0.91zM10 0.4c-5.302 0-9.6 4.298-9.6 9.6s4.298 9.6 9.6 9.6 9.6-4.298 9.6-9.6-4.298-9.6-9.6-9.6zM10.876 13.939c-0.172 0-0.514 0-0.876 0.002-0.362-0.002-0.704-0.002-0.876-0.002-0.76 0-3.772-0.059-3.772-3.689 0-0.834 0.286-1.445 0.755-1.955-0.074-0.184-0.078-1.232 0.32-2.236 0 0 0.916 0.1 2.301 1.051 0.289-0.081 0.781-0.122 1.272-0.122s0.982 0.041 1.273 0.121c1.385-0.951 2.301-1.051 2.301-1.051 0.398 1.004 0.395 2.053 0.32 2.236 0.469 0.51 0.755 1.121 0.755 1.955-0.001 3.632-3.013 3.69-3.773 3.69z"></path>
</symbol>
<symbol id="icon-github" viewBox="0 0 20 20">
<title>github</title>
<path d="M13.18 11.309c-0.718 0-1.3 0.807-1.3 1.799 0 0.994 0.582 1.801 1.3 1.801s1.3-0.807 1.3-1.801c-0.001-0.992-0.582-1.799-1.3-1.799zM17.706 6.626c0.149-0.365 0.155-2.439-0.635-4.426 0 0-1.811 0.199-4.551 2.080-0.575-0.16-1.548-0.238-2.519-0.238-0.973 0-1.945 0.078-2.52 0.238-2.741-1.881-4.552-2.080-4.552-2.080-0.789 1.987-0.781 4.061-0.634 4.426-0.928 1.008-1.495 2.219-1.495 3.871 0 7.186 5.963 7.301 7.467 7.301 0.342 0 1.018 0.002 1.734 0.002s1.392-0.002 1.732-0.002c1.506 0 7.467-0.115 7.467-7.301 0-1.652-0.566-2.863-1.494-3.871zM10.028 16.915h-0.056c-3.771 0-6.709-0.449-6.709-4.115 0-0.879 0.31-1.693 1.047-2.369 1.227-1.127 3.305-0.531 5.662-0.531 0.010 0 0.020 0 0.029 0s0.018 0 0.027 0c2.357 0 4.436-0.596 5.664 0.531 0.735 0.676 1.045 1.49 1.045 2.369 0 3.666-2.937 4.115-6.709 4.115zM6.821 11.309c-0.718 0-1.3 0.807-1.3 1.799 0 0.994 0.582 1.801 1.3 1.801s1.301-0.807 1.301-1.801c0-0.992-0.582-1.799-1.301-1.799z"></path>
</symbol>
<symbol id="icon-twitter-with-circle" viewBox="0 0 20 20">
<title>twitter-with-circle</title>
<path d="M10 0.4c-5.302 0-9.6 4.298-9.6 9.6s4.298 9.6 9.6 9.6 9.6-4.298 9.6-9.6-4.298-9.6-9.6-9.6zM13.905 8.264c0.004 0.082 0.005 0.164 0.005 0.244 0 2.5-1.901 5.381-5.379 5.381-1.068 0-2.062-0.312-2.898-0.85 0.147 0.018 0.298 0.025 0.451 0.025 0.886 0 1.701-0.301 2.348-0.809-0.827-0.016-1.525-0.562-1.766-1.312 0.115 0.021 0.233 0.033 0.355 0.033 0.172 0 0.34-0.023 0.498-0.066-0.865-0.174-1.517-0.938-1.517-1.854v-0.023c0.255 0.141 0.547 0.227 0.857 0.237-0.508-0.34-0.841-0.918-0.841-1.575 0-0.346 0.093-0.672 0.256-0.951 0.933 1.144 2.325 1.896 3.897 1.977-0.033-0.139-0.049-0.283-0.049-0.432 0-1.043 0.846-1.891 1.891-1.891 0.543 0 1.035 0.23 1.38 0.598 0.431-0.086 0.835-0.242 1.2-0.459-0.141 0.441-0.44 0.812-0.831 1.047 0.383-0.047 0.747-0.148 1.086-0.299-0.253 0.379-0.574 0.713-0.943 0.979z"></path>
</symbol>
<symbol id="icon-twitter" viewBox="0 0 20 20">
<title>twitter</title>
<path d="M17.316 6.246c0.008 0.162 0.011 0.326 0.011 0.488 0 4.99-3.797 10.742-10.74 10.742-2.133 0-4.116-0.625-5.787-1.697 0.296 0.035 0.596 0.053 0.9 0.053 1.77 0 3.397-0.604 4.688-1.615-1.651-0.031-3.046-1.121-3.526-2.621 0.23 0.043 0.467 0.066 0.71 0.066 0.345 0 0.679-0.045 0.995-0.131-1.727-0.348-3.028-1.873-3.028-3.703 0-0.016 0-0.031 0-0.047 0.509 0.283 1.092 0.453 1.71 0.473-1.013-0.678-1.68-1.832-1.68-3.143 0-0.691 0.186-1.34 0.512-1.898 1.861 2.285 4.644 3.787 7.781 3.945-0.064-0.277-0.097-0.564-0.097-0.861 0-2.084 1.689-3.773 3.774-3.773 1.086 0 2.067 0.457 2.756 1.191 0.859-0.17 1.667-0.484 2.397-0.916-0.282 0.881-0.881 1.621-1.66 2.088 0.764-0.092 1.49-0.293 2.168-0.594-0.506 0.758-1.146 1.422-1.884 1.953z"></path>
</symbol>
</defs>
</svg>
